ply
format ascii 1.0
element vertex 191
property float x
property float y
property float z
element face 83
property list uchar int vertex_indices
property uint labels
property float probs
end_header
7.55311012268066406 -5.87481021881103516 3.76004719734191895
10.3381996154785156 -5.87481021881103516 0.0595569983124732971
7.55311012268066406 -5.87481021881103516 0.0595569983124732971
10.3381996154785156 -5.87481021881103516 3.76004719734191895
10.3381996154785156 -3.83735990524291992 0.0595569983124732971
10.3381996154785156 -3.83735990524291992 3.76004719734191895
7.55311012268066406 -3.83735990524291992 0.0595569983124732971
7.55311012268066406 -3.83735990524291992 3.76004719734191895
7.55311012268066406 -4.77440977096557617 0.4964790940284729
7.55311012268066406 -3.88752007484436035 0.4964790940284729
7.55311012268066406 -3.88752007484436035 2.64385700225830078
7.55311012268066406 -4.77440977096557617 2.64385700225830078
8.10982036590576172 -3.83735990524291992 0.182392105460166931
9.55440998077392578 -3.83735990524291992 0.182392105460166931
9.55440998077392578 -3.83735990524291992 2.70135712623596191
8.10982036590576172 -3.83735990524291992 2.70135712623596191
10.3358001708984375 -3.36552000045776367 0.0566117018461227417
11.5822000503540039 -0.534554004669189453 0.0566117018461227417
11.5822000503540039 -0.534554004669189453 3.30476880073547363
10.3358001708984375 -2.48150992393493652 0.0566117018461227417
10.8969001770019531 -2.48150992393493652 0.0566117018461227417
7.53088998794555664 -0.534554004669189453 0.0566117018461227417
7.53088998794555664 -0.534554004669189453 3.30476880073547363
7.53088998794555664 -3.36552000045776367 0.0566117018461227417
11.5822000503540039 -1.68166005611419678 0.0566117018461227417
10.8969001770019531 -1.68166005611419678 0.0566117018461227417
11.5822000503540039 -1.68166005611419678 3.30476880073547363
10.8969001770019531 -2.48150992393493652 3.30476880073547363
10.8969001770019531 -1.68166005611419678 3.30476880073547363
10.3358001708984375 -3.36552000045776367 3.30476880073547363
10.3358001708984375 -2.48150992393493652 3.30476880073547363
7.53088998794555664 -3.36552000045776367 3.30476880073547363
8.59401988983154297 -3.36552000045776367 2.44795894622802734
7.69653987884521484 -3.36552000045776367 2.44795894622802734
7.69653987884521484 -3.36552000045776367 3.75676894187927246
8.59401988983154297 -3.36552000045776367 3.75676894187927246
8.59255027770996094 -3.36552000045776367 0.0713919997215270996
7.544219970703125 -3.36552000045776367 0.0713919997215270996
7.544219970703125 -3.36552000045776367 2.84779882431030273
8.59255027770996094 -3.36552000045776367 2.84779882431030273
8.46459007263183594 -3.36552000045776367 0.128978893160820007
7.54507017135620117 -3.36552000045776367 0.128978893160820007
7.54507017135620117 -3.36552000045776367 2.27418899536132812
8.46459007263183594 -3.36552000045776367 2.27418899536132812
7.53088998794555664 -3.49737000465393066 0.108753196895122528
7.53088998794555664 -2.23379993438720703 0.108753196895122528
7.53088998794555664 -2.23379993438720703 2.68999886512756348
7.53088998794555664 -3.49737000465393066 2.68999886512756348
8.48206996917724609 -3.36552000045776367 0.0726623013615608215
7.52780008316040039 -3.36552000045776367 0.0726623013615608215
7.52780008316040039 -3.36552000045776367 2.29289889335632324
8.48206996917724609 -3.36552000045776367 2.29289889335632324
11.5766000747680664 1.06659996509552002 0.0879546627402305603
11.5766000747680664 2.18532991409301758 0.0879546627402305603
11.5766000747680664 2.18532991409301758 3.7931208610534668
7.53575992584228516 2.18532991409301758 3.7931208610534668
11.2231998443603516 1.06659996509552002 0.0879546627402305603
7.53575992584228516 2.18532991409301758 0.0879546627402305603
11.2231998443603516 -0.44114801287651062 3.7931208610534668
7.53575992584228516 -0.44114801287651062 3.7931208610534668
11.2231998443603516 -0.44114801287651062 0.0879546627402305603
11.2231998443603516 1.06659996509552002 3.7931208610534668
11.5766000747680664 1.06659996509552002 3.7931208610534668
7.53575992584228516 -0.44114801287651062 0.0879546627402305603
11.5766000747680664 1.83099997043609619 1.57734084129333496
11.5766000747680664 1.38210999965667725 1.57734084129333496
11.5766000747680664 1.38210999965667725 2.72413086891174316
11.5766000747680664 1.83099997043609619 2.72413086891174316
10.0522003173828125 2.18532991409301758 1.97108089923858643
11.5832004547119141 2.18532991409301758 1.97108089923858643
11.5832004547119141 2.18532991409301758 3.80424094200134277
10.0522003173828125 2.18532991409301758 3.80424094200134277
11.2231998443603516 0.997687995433807373 0.095478057861328125
11.2231998443603516 -0.382283985614776611 0.095478057861328125
11.2231998443603516 -0.382283985614776611 2.47297096252441406
11.2231998443603516 0.997687995433807373 2.47297096252441406
11.5766000747680664 1.83411002159118652 1.53282082080841064
11.5766000747680664 1.36261999607086182 1.53282082080841064
11.5766000747680664 1.36261999607086182 2.50974082946777344
11.5766000747680664 1.83411002159118652 2.50974082946777344
7.53575992584228516 0.000941277015954256058 0.776027858257293701
7.53575992584228516 1.11254000663757324 0.776027858257293701
7.53575992584228516 1.11254000663757324 2.77342081069946289
7.53575992584228516 0.000941277015954256058 2.77342081069946289
-7.60297012329101562 7.1712799072265625 0.683049023151397705
-7.60297012329101562 7.26782989501953125 1.14399003982543945
-7.60297012329101562 5.33777999877929688 2.49717998504638672
10.5072002410888672 2.53532004356384277 0.0872242003679275513
-7.1795201301574707 5.33777999877929688 2.49717998504638672
3.56389999389648438 -4.83033990859985352 0.0872242003679275513
-7.1795201301574707 4.40736007690429688 2.49717998504638672
-5.28199005126953125 7.26782989501953125 1.14399003982543945
-5.28199005126953125 7.1712799072265625 0.683049023151397705
-7.87985992431640625 -0.792460024356842041 0.0872242003679275513
-7.87985992431640625 4.40736007690429688 2.49717998504638672
-5.28199005126953125 7.26782989501953125 0.0872242003679275513
-7.87985992431640625 -0.792460024356842041 2.49717998504638672
-7.87985992431640625 4.40736007690429688 0.0872242003679275513
-7.60297012329101562 7.26782989501953125 2.49717998504638672
-5.28199005126953125 7.26782989501953125 2.49717998504638672
-5.28199005126953125 -0.792460024356842041 2.49717998504638672
10.8732995986938477 5.88724994659423828 3.34089994430541992
0.95881497859954834 5.33777999877929688 3.34089994430541992
5.26436996459960938 -5.59507989883422852 0.0872242003679275513
0.0396174006164073944 5.33777999877929688 3.34089994430541992
7.46763992309570312 2.53532004356384277 0.0872242003679275513
3.56389999389648438 -0.792460024356842041 3.34089994430541992
7.46763992309570312 -0.792460024356842041 3.34089994430541992
-5.28199005126953125 5.88724994659423828 3.34089994430541992
0.0396174006164073944 4.40736007690429688 3.34089994430541992
10.8732995986938477 4.62578010559082031 3.34089994430541992
10.5072002410888672 4.62578010559082031 3.34089994430541992
0.95881497859954834 4.40736007690429688 3.34089994430541992
10.5072002410888672 3.8042600154876709 3.34089994430541992
-5.28199005126953125 3.8042600154876709 3.34089994430541992
7.46763992309570312 -4.83033990859985352 3.34089994430541992
3.56389999389648438 -4.83033990859985352 3.34089994430541992
5.26436996459960938 -4.83033990859985352 3.34089994430541992
10.8732995986938477 7.26782989501953125 3.79296994209289551
7.46763992309570312 -5.59507989883422852 0.0872242003679275513
7.46763992309570312 -0.792460024356842041 3.79296994209289551
-5.28199005126953125 -0.792460024356842041 3.79296994209289551
-5.28199005126953125 7.26782989501953125 3.79296994209289551
10.8732995986938477 5.88724994659423828 3.79296994209289551
-5.28199005126953125 5.88724994659423828 3.79296994209289551
-7.60297012329101562 7.1712799072265625 0.0872242003679275513
-7.1795201301574707 5.33777999877929688 0.0872242003679275513
7.46763992309570312 2.53532004356384277 3.79296994209289551
7.46763992309570312 -5.59507989883422852 3.79296994209289551
7.46763992309570312 -4.83033990859985352 3.79296994209289551
10.5072002410888672 3.8042600154876709 3.79296994209289551
5.26436996459960938 -4.83033990859985352 0.0872242003679275513
-5.28199005126953125 3.8042600154876709 3.79296994209289551
10.8732995986938477 7.26782989501953125 0.0872242003679275513
5.26436996459960938 -5.59507989883422852 3.79296994209289551
5.26436996459960938 -4.83033990859985352 3.79296994209289551
10.5072002410888672 2.53532004356384277 3.79296994209289551
0.95881497859954834 4.40736007690429688 0.0872242003679275513
-5.28199005126953125 7.1712799072265625 0.0872242003679275513
3.56389999389648438 -0.792460024356842041 0.0872242003679275513
-7.60297012329101562 5.33777999877929688 0.0872242003679275513
0.95881497859954834 5.33777999877929688 0.0872242003679275513
0.0396174006164073944 5.33777999877929688 0.0872242003679275513
0.0396174006164073944 4.40736007690429688 0.0872242003679275513
10.8732995986938477 4.62578010559082031 0.0872242003679275513
-7.1795201301574707 4.40736007690429688 0.0872242003679275513
10.5072002410888672 4.62578010559082031 0.0872242003679275513
-1.6539299488067627 7.26782989501953125 1.0854799747467041
0.461050987243652344 7.26782989501953125 1.0854799747467041
0.461050987243652344 7.26782989501953125 2.87865996360778809
-1.6539299488067627 7.26782989501953125 2.87865996360778809
7.24069976806640625 7.26782989501953125 1.08668005466461182
8.47002983093261719 7.26782989501953125 1.08668005466461182
8.47002983093261719 7.26782989501953125 3.02437996864318848
7.24069976806640625 7.26782989501953125 3.02437996864318848
-4.99242019653320312 7.26782989501953125 1.97067999839782715
-3.57307004928588867 7.26782989501953125 1.97067999839782715
-3.57307004928588867 7.26782989501953125 3.74244999885559082
-4.99242019653320312 7.26782989501953125 3.74244999885559082
1.6652599573135376 7.26782989501953125 1.09057998657226562
2.761199951171875 7.26782989501953125 1.09057998657226562
2.761199951171875 7.26782989501953125 1.85137999057769775
1.6652599573135376 7.26782989501953125 1.85137999057769775
7.46763992309570312 -3.88656997680664062 2.02175998687744141
7.46763992309570312 -4.83447980880737305 2.02175998687744141
7.46763992309570312 -4.83447980880737305 2.71818995475769043
7.46763992309570312 -3.88656997680664062 2.71818995475769043
-6.87161016464233398 7.26782989501953125 1.62057995796203613
-6.50282001495361328 7.26782989501953125 1.62057995796203613
-6.50282001495361328 7.26782989501953125 2.23147988319396973
-6.87161016464233398 7.26782989501953125 2.23147988319396973
5.00257015228271484 -4.83033990859985352 0.0808487012982368469
3.36062002182006836 -4.83033990859985352 0.0808487012982368469
3.36062002182006836 -4.83033990859985352 2.60523009300231934
5.00257015228271484 -4.83033990859985352 2.60523009300231934
10.5072002410888672 4.21662998199462891 0.0809784010052680969
10.5072002410888672 2.61085009574890137 0.0809784010052680969
10.5072002410888672 2.61085009574890137 2.57678008079528809
10.5072002410888672 4.21662998199462891 2.57678008079528809
7.46763992309570312 -2.28413009643554688 0.046680498868227005
7.46763992309570312 -4.88755989074707031 0.046680498868227005
7.46763992309570312 -4.88755989074707031 2.64532995223999023
7.46763992309570312 -2.28413009643554688 2.64532995223999023
7.46763992309570312 1.00645005702972412 0.111175999045372009
7.46763992309570312 -0.347063004970550537 0.111175999045372009
7.46763992309570312 -0.347063004970550537 2.67428994178771973
7.46763992309570312 1.00645005702972412 2.67428994178771973
7.46763992309570312 -2.792449951171875 0.0702781975269317627
7.46763992309570312 -4.90362977981567383 0.0702781975269317627
7.46763992309570312 -4.90362977981567383 2.7308800220489502
7.46763992309570312 -2.792449951171875 2.7308800220489502
4 0 3 1 2 2 1
4 2 1 4 6 1 1
4 7 5 3 0 0 1
4 1 3 5 4 2 1
4 6 7 0 2 2 1
4 6 4 5 7 2 1
4 8 9 10 11 6 0.92569500207901001
4 12 13 14 15 6 0.628376007080078125
8 24 17 21 23 16 19 20 25 1 1
4 17 18 22 21 2 1
8 30 29 31 22 18 26 28 27 0 1
4 25 28 26 24 2 1
4 19 30 27 20 4 1
4 31 23 21 22 2 1
4 24 26 18 17 2 1
4 20 27 28 25 4 1
4 29 16 23 31 2 1
4 16 29 30 19 4 1
4 32 33 34 35 5 0.400649011135101318
4 36 37 38 39 6 0.747313022613525391
4 40 41 42 43 6 0.860457003116607666
4 44 45 46 47 6 0.65126502513885498
4 48 49 50 51 6 0.761853992938995361
4 55 57 53 54 2 1
6 58 59 55 54 62 61 0 1
4 56 61 62 52 4 1
6 57 63 60 56 52 53 1 1
4 57 55 59 63 2 1
4 61 56 60 58 2 1
4 58 60 63 59 2 1
4 52 62 54 53 2 1
4 64 65 66 67 5 0.394856005907058716
4 68 69 70 71 6 0.653087973594665527
4 72 73 74 75 6 0.644001007080078125
4 76 77 78 79 6 0.377384990453720093
4 80 81 82 83 6 0.559714972972869873
4 87 105 127 136 2 1
18 146 144 133 95 138 125 140 126 145 97 93 139 89 131 103 119 105 87 1 1
4 141 137 143 142 1 1
4 109 112 102 104 0 1
6 121 132 130 136 127 120 0 1
4 135 129 128 134 0 1
4 118 123 124 122 0 1
5 106 107 115 117 116 0 1
4 123 101 108 124 2 1
4 138 92 84 125 2 1
4 94 97 145 90 2 1
4 126 140 86 88 2 1
8 121 100 99 122 124 108 114 132 3 1
4 97 94 96 93 2 1
8 119 128 129 115 107 120 127 105 2 1
5 135 134 103 131 117 2 1
4 113 130 132 114 3 1
8 96 94 90 88 86 98 99 100 0 1
6 108 101 110 111 113 114 0 1
6 87 136 130 113 111 146 2 1
6 125 84 85 98 86 140 2 1
4 126 88 90 145 2 1
4 116 89 139 106 2 1
4 112 137 141 102 2 1
4 104 142 143 109 4 1
4 115 129 135 117 2 1
4 134 128 119 103 2 1
4 117 131 89 116 2 1
4 92 91 85 84 2 1
4 141 142 104 102 2 1
8 120 107 106 139 93 96 100 121 2 1
4 144 146 111 110 2 1
8 99 98 85 91 95 133 118 122 2 1
4 112 109 143 137 2 1
4 91 92 138 95 3 1
6 133 144 110 101 123 118 2 1
4 147 148 149 150 5 0.731293022632598877
4 151 152 153 154 5 0.753220021724700928
4 155 156 157 158 5 0.52479100227355957
4 159 160 161 162 5 0.57626497745513916
4 163 164 165 166 5 0.541058003902435303
4 167 168 169 170 5 0.455392986536026001
4 171 172 173 174 6 0.91641002893447876
4 175 176 177 178 6 0.950681984424591064
4 179 180 181 182 6 0.838008999824523926
4 183 184 185 186 6 0.803324997425079346
4 187 188 189 190 6 0.600104987621307373
